<?xml version="1.0" standalone="no"?>
<!DOCTYPE svg PUBLIC "-//W3C//DTD SVG 20010904//EN"
 "http://www.w3.org/TR/2001/REC-SVG-20010904/DTD/svg10.dtd">
<svg version="1.0" xmlns="http://www.w3.org/2000/svg"
 width="500.000000pt" height="500.000000pt" viewBox="0 0 500.000000 500.000000"
 preserveAspectRatio="xMidYMid meet">

<g transform="translate(0.000000,500.000000) scale(0.100000,-0.100000)"
fill="#000000" stroke="none">
<path d="M0 2500 l0 -2500 2500 0 2500 0 0 2500 0 2500 -2500 0 -2500 0 0
-2500z m3683 1098 c-5 -62 -8 -211 -8 -331 l0 -218 -35 3 -34 3 -13 100 c-41
331 -115 439 -325 475 -41 7 -149 10 -286 8 -249 -3 -257 -6 -297 -84 -19 -37
-20 -62 -23 -497 l-3 -459 163 4 c143 3 168 6 203 25 81 43 118 109 141 250
24 152 20 143 57 143 l32 0 0 -342 c0 -189 4 -394 8 -455 l8 -113 -35 0 c-39
0 -38 -3 -57 140 -14 109 -41 171 -95 219 -58 51 -103 61 -278 61 l-146 0 0
-387 c0 -411 6 -485 41 -534 29 -41 68 -56 183 -70 94 -12 96 -13 96 -39 l0
-26 -435 1 -435 0 0 26 c0 25 3 27 76 38 101 15 131 32 157 89 22 47 22 53 25
772 2 398 0 722 -3 718 -3 -3 -151 -381 -329 -839 -321 -827 -324 -834 -351
-834 -28 0 -31 8 -421 1013 -216 557 -404 1032 -418 1056 -33 57 -86 102 -136
117 -34 11 -40 16 -40 41 l0 28 370 0 370 0 0 -29 c0 -28 -3 -29 -52 -36 -82
-10 -119 -22 -144 -46 -33 -31 -32 -96 4 -196 79 -222 577 -1533 582 -1533 10
0 548 1414 560 1471 13 68 0 197 -24 234 -24 36 -67 54 -156 67 -77 12 -80 13
-80 38 0 15 3 30 7 33 3 4 361 7 795 7 l788 0 -7 -112z"/>
</g>
</svg>
